<svg width="95" height="20" viewBox="0 0 95 20" fill="none" xmlns="http://www.w3.org/2000/svg">
<g clip-path="url(#clip0_329_267)">
<path d="M32.5799 15.2572V10.7405H35.5417V15.2572H37.0226V4.74283H31.025V15.2572H32.5799ZM32.5799 6.22373H35.5417V9.25959H32.5799V6.22373ZM57.9774 4.74283V6.22373H60.1988V15.2572H61.6797V6.22373H63.901V4.74283H57.9774ZM49.0179 15.2572H50.4988V6.22373H53.4607V15.2572H54.9416V4.74283H49.0179V15.2572ZM40.0585 15.2572H46.0561V9.25959H44.5752V13.7763H41.6134V6.22373H46.0561V4.74283H40.0585V15.2572Z" fill="#B6822D"/>
<path d="M26.6563 0.226074V19.774H68.4918V0.226074H26.6563ZM66.9369 18.2931H28.1372V1.70698H66.9369V18.2931Z" fill="#B6822D"/>
<path d="M5.62744 12.7397L6.44193 15.4053H7.77475L4.44271 5.03901H3.33203L0 15.4053H1.33281L2.14731 12.7397H5.62744ZM2.51754 11.555L3.85035 7.11228L5.18316 11.629H2.51754V11.555ZM15.9197 15.4053V5.03901H14.5869V12.7397L10.5144 5.03901H9.18161V15.4053H10.5144V7.63059L14.5869 15.4053H15.9197Z" fill="#B6822D"/>
<path d="M85.9665 10.8145V9.62981C85.9665 9.25959 85.8925 8.88936 85.8925 8.51914C85.8184 8.14891 85.7444 7.77868 85.5963 7.40846C85.4482 7.03823 85.3001 6.74205 85.078 6.44587C84.8558 6.14969 84.6337 5.85351 84.4116 5.63137C84.1154 5.40924 83.8192 5.26115 83.523 5.11306C83.1528 4.96497 82.7826 4.89092 82.3383 4.89092C81.894 4.89092 81.5238 4.96497 81.1536 5.11306C80.7833 5.26115 80.4872 5.40924 80.265 5.63137C79.9688 5.85351 79.7467 6.14969 79.5986 6.44587C79.3765 6.74205 79.2284 7.11228 79.1543 7.40846C79.0063 7.77868 78.9322 8.14891 78.8582 8.51914C78.7841 8.88936 78.7841 9.25959 78.7841 9.62981V10.8145C78.7841 11.1848 78.8582 11.555 78.8582 11.9252C78.9322 12.2954 79.0063 12.6657 79.1543 13.0359C79.3024 13.4061 79.4505 13.7023 79.5986 13.9985C79.8208 14.2947 80.0429 14.5908 80.265 14.813C80.5612 15.0351 80.8574 15.2572 81.1536 15.3313C81.5238 15.4794 81.894 15.5534 82.3383 15.5534C82.7826 15.5534 83.1528 15.4794 83.523 15.3313C83.8932 15.1832 84.1894 15.0351 84.4116 14.813C84.7077 14.5908 84.9299 14.2947 85.078 13.9985C85.3001 13.7023 85.4482 13.3321 85.5222 13.0359C85.6703 12.6657 85.7444 12.2954 85.8184 11.9252C85.9665 11.555 85.9665 11.1848 85.9665 10.8145ZM84.7077 9.62981V10.8145C84.7077 11.0367 84.7077 11.3329 84.6337 11.555C84.6337 11.8512 84.5596 12.0733 84.4856 12.3695C84.4116 12.6657 84.3375 12.8878 84.1894 13.1099C84.1154 13.3321 83.9673 13.5542 83.7451 13.7023C83.5971 13.8504 83.3749 13.9985 83.1528 14.1466C82.9307 14.2206 82.6345 14.2947 82.3383 14.2947C82.0421 14.2947 81.7459 14.2206 81.5238 14.1466C81.3017 14.0725 81.0795 13.9244 80.9314 13.7023C80.7833 13.5542 80.6352 13.3321 80.4872 13.0359C80.3391 12.8138 80.265 12.5176 80.191 12.2954C80.1169 11.9993 80.0429 11.7771 80.0429 11.4809C80.0429 11.1848 79.9688 10.9626 79.9688 10.7405V9.55577C79.9688 9.33363 79.9688 9.03745 80.0429 8.81532C80.0429 8.51914 80.1169 8.297 80.191 8.00082C80.265 7.70464 80.3391 7.4825 80.4872 7.26037C80.6352 7.03823 80.7093 6.8161 80.9314 6.59396C81.0795 6.44587 81.3017 6.29778 81.5238 6.14969C81.7459 6.07564 82.0421 6.0016 82.3383 6.0016C82.6345 6.0016 82.9307 6.07564 83.1528 6.14969C83.3749 6.22374 83.5971 6.37183 83.7451 6.59396C83.8932 6.74205 84.0413 6.96419 84.1894 7.26037C84.3375 7.4825 84.4116 7.77868 84.4856 8.00082C84.5596 8.297 84.6337 8.51914 84.6337 8.81532C84.7077 9.1115 84.7077 9.40768 84.7077 9.62981ZM89.4466 11.2588H91.5199C91.9642 11.2588 92.4084 11.1848 92.8527 11.0367C93.297 10.8886 93.6672 10.6664 93.9634 10.4443C94.2596 10.1481 94.5557 9.85195 94.7038 9.48172C94.8519 9.1115 95 8.66723 95 8.14891C95 7.63059 94.926 7.18632 94.7038 6.8161C94.5557 6.44587 94.2596 6.07564 93.9634 5.85351C93.6672 5.55733 93.297 5.40924 92.8527 5.26115C92.4084 5.11306 91.9642 5.03901 91.5199 5.03901H88.1879V15.4053H89.5207V11.2588H89.4466ZM89.4466 10.1481V6.14969H91.5199C91.8161 6.14969 92.1123 6.22374 92.3344 6.29778C92.6306 6.37183 92.8527 6.51992 93.0008 6.66801C93.1489 6.8161 93.297 7.03823 93.4451 7.33441C93.5191 7.55655 93.5932 7.85273 93.5932 8.14891C93.5932 8.44509 93.5191 8.74127 93.4451 8.96341C93.371 9.18554 93.2229 9.40768 93.0008 9.55577C92.7787 9.70386 92.5565 9.85195 92.3344 9.926C92.1123 10 91.8161 10.0741 91.5199 10.0741H89.4466V10.1481Z" fill="#B6822D"/>
</g>
<defs>
<clipPath id="clip0_329_267">
<rect width="95" height="19.5479" fill="white" transform="translate(0 0.226074)"/>
</clipPath>
</defs>
</svg>
